<svg width="131" height="130" viewBox="0 0 131 130" fill="none" xmlns="http://www.w3.org/2000/svg">
<path d="M55.5001 24.5C58.5001 29 59.0001 33 54.5001 38.5C50.8184 43 42.5002 43 41.5001 51.5C40.5001 60 57.5001 87 79.5002 89.5C87.0001 89.5 86.788 82.0964 93.0002 76C99.2124 69.9036 107.5 76 107.5 76L127.5 96C127.5 96 132.5 101.5 127.5 110.5C122.5 119.5 112 126 112 126C103.012 129.507 97.3499 129.221 86.5002 126C45.2982 105.268 16.5 76 5.00013 44.5C0.619237 32.5 1.00006 26 5.00013 19C9.00021 12 20.0001 4 20.0001 4C25.6833 0.465824 28.9674 0.434794 35.0001 4C43.5756 11.0887 52.5002 20 55.5001 24.5Z" fill="#5CD2B9" stroke="#5CD2B9" stroke-width="2"/>
</svg>
