<svg width="470" height="524" viewBox="0 0 470 524" fill="none" xmlns="http://www.w3.org/2000/svg">
<path d="M295.105 261C295.105 308.888 287.876 352.02 276.35 383C270.581 398.509 263.83 410.711 256.588 418.945C249.338 427.188 242.03 431 235 431C227.97 431 220.662 427.188 213.412 418.945C206.17 410.711 199.419 398.509 193.65 383C182.124 352.02 174.894 308.888 174.894 261C174.894 213.112 182.124 169.98 193.65 139C199.419 123.491 206.17 111.289 213.412 103.055C220.662 94.8122 227.97 91 235 91C242.03 91 249.338 94.8122 256.588 103.055C263.83 111.289 270.581 123.491 276.35 139C287.876 169.98 295.105 213.112 295.105 261Z" stroke="#5CD2B9" stroke-width="10"/>
<path d="M265.36 205.017C304.227 228.906 335.586 257.107 354.919 283.202C364.593 296.261 371.098 308.579 374.144 319.39C377.183 330.179 376.676 339.035 372.996 345.819C369.317 352.604 362.366 357.5 352.07 360.092C341.753 362.69 328.48 362.851 313.021 360.461C282.126 355.684 243.507 340.873 204.64 316.983C165.773 293.093 134.414 264.893 115.081 238.797C105.407 225.739 98.9015 213.421 95.8564 202.61C92.8173 191.821 93.3244 182.965 97.0037 176.18C100.683 169.396 107.634 164.5 117.93 161.908C128.246 159.31 141.52 159.148 156.979 161.539C187.874 166.316 226.493 181.127 265.36 205.017Z" stroke="#5CD2B9" stroke-width="10"/>
<path d="M265.36 316.983C226.493 340.873 187.874 355.684 156.979 360.461C141.52 362.852 128.247 362.69 117.93 360.092C107.634 357.5 100.683 352.604 97.0038 345.82C93.3244 339.035 92.8173 330.179 95.8564 319.39C98.9016 308.579 105.407 296.261 115.081 283.203C134.414 257.107 165.773 228.906 204.64 205.017C243.507 181.127 282.126 166.316 313.021 161.539C328.48 159.149 341.754 159.31 352.07 161.908C362.366 164.5 369.317 169.396 372.996 176.181C376.676 182.965 377.183 191.821 374.144 202.61C371.098 213.421 364.593 225.739 354.919 238.798C335.586 264.893 304.227 293.094 265.36 316.983Z" stroke="#5CD2B9" stroke-width="10"/>
<ellipse cx="234.538" cy="261" rx="40.6332" ry="43.2584" fill="#5CD2B9"/>
<path d="M464 5H6L44.1667 472L236.796 518L426.731 472L464 5Z" stroke="#5CD2B9" stroke-width="10"/>
</svg>
